<?xml version="1.0" encoding="utf-8"?>
<!-- Generator: Adobe Illustrator 24.2.3, SVG Export Plug-In . SVG Version: 6.00 Build 0)  -->
<svg version="1.1" id="Ebene_1" xmlns="http://www.w3.org/2000/svg" xmlns:xlink="http://www.w3.org/1999/xlink" x="0px" y="0px"
	 viewBox="0 0 16 16" style="enable-background:new 0 0 16 16;" xml:space="preserve">
<style type="text/css">
	.st0{fill-rule:evenodd;clip-rule:evenodd;}
</style>
<path class="st0" d="M8,1C6.5,1,5.3,2.1,5.3,3.5V4h5.4V3.5C10.7,2.1,9.5,1,8,1z M11.8,4V3.5C11.8,1.6,10.1,0,8,0S4.2,1.6,4.2,3.5V4
	H0.5v10c0,1.1,1,2,2.1,2h10.7c1.2,0,2.1-0.9,2.1-2V4H11.8z M1.6,5v9c0,0.6,0.5,1,1.1,1h10.7c0.6,0,1.1-0.4,1.1-1V5H1.6z"/>
</svg>
