<svg xmlns="http://www.w3.org/2000/svg" width="16" height="16" fill="currentColor" class="bi bi-search" viewBox="0 0 16 16">
    <path d="M15.915,15.061l-4.038,-4.038c-0.072,-0.072 -0.166,-0.109 -0.266,-0.109l-0.322,-0c1.073,-1.161 1.731,-2.711 1.731,-4.416c-0,-3.596 -2.914,-6.51 -6.51,-6.51c-3.596,-0 -6.51,2.914 -6.51,6.51c0,3.596 2.914,6.51 6.51,6.51c1.706,-0 3.255,-0.658 4.416,-1.728l-0,0.319c-0,0.1 0.041,0.194 0.109,0.266l4.038,4.038c0.147,0.147 0.385,0.147 0.532,-0l0.31,-0.31c0.147,-0.147 0.147,-0.385 -0,-0.532Zm-9.405,-3.055c-3.045,0 -5.508,-2.463 -5.508,-5.508c-0,-3.046 2.463,-5.509 5.508,-5.509c3.045,0 5.508,2.463 5.508,5.509c0,3.045 -2.463,5.508 -5.508,5.508Z"/>
</svg>
